<?xml version="1.0" encoding="UTF-8"?>
<svg xmlns="http://www.w3.org/2000/svg" viewBox="0 0 960 240" role="img" aria-label="comux">
  <defs>
    <linearGradient id="fill" x1="0" y1="0" x2="1" y2="1">
      <stop offset="0" stop-color="#fff7ed"/>
      <stop offset="0.48" stop-color="#fb923c"/>
      <stop offset="1" stop-color="#7c2d12"/>
    </linearGradient>
  </defs>
  <rect width="960" height="240" rx="44" fill="#070707"/>
  <path d="M92 120c0-47 36-82 87-82 34 0 62 15 76 41l-45 26c-7-13-18-20-32-20-21 0-37 14-37 35s16 36 37 36c14 0 25-7 32-20l45 26c-14 26-42 41-76 41-51 0-87-35-87-83Zm187 0c0-47 37-82 89-82s89 35 89 82-37 83-89 83-89-36-89-83Zm130 0c0-22-17-36-41-36s-41 14-41 36 17 37 41 37 41-15 41-37Zm76-77h48v18c13-16 31-23 53-23 25 0 45 10 57 29 15-19 37-29 65-29 39 0 66 23 66 73v88h-51v-80c0-23-9-34-27-34-20 0-32 13-32 38v76h-51v-80c0-23-9-34-27-34-20 0-33 13-33 38v76h-51V43Zm333 86V43h52v77c0 25 10 36 30 36 21 0 34-13 34-41V43h52v156h-49v-18c-12 14-29 22-50 22-39 0-69-23-69-74Zm247-8-55-78h58l27 40 28-40h55l-55 76 58 80h-59l-29-43-30 43h-56l58-78Z" fill="url(#fill)"/>
</svg>
